# xmcd
#
# Track frame offsets:
#	150
#	13956
#	28761
#	46542
#	62149
#	79182
#	98654
#	109461
#	127393
#	146640
#
# Disc length: 2205 seconds
#
# Revision: 1
# Processed by: cddbd v1.5.2PL0 Copyright (c) Steve Scherf et al.
# Submitted via: audiograbber 1.83.01
#
DISCID=8d089b0a
DTITLE=Marlin James Band - Give Me A Kiss
DYEAR=2007
DGENRE=Country
TTITLE0=Give Me A Kiss
TTITLE1=Pappas Ol' Pick-up Truck
TTITLE2=Desiree
TTITLE3=Draw Those Curtains
TTITLE4=Freedoms Finally Mine
TTITLE5=Blue Moon
TTITLE6=The Highway Song
TTITLE7=Not Your Memory
TTITLE8=Pray For Rain
TTITLE9=Ghost In This Guitar
EXTD=
EXTT0=
EXTT1=
EXTT2=
EXTT3=
EXTT4=
EXTT5=
EXTT6=
EXTT7=
EXTT8=
EXTT9=
PLAYORDER=
